<?xml version="1.0" encoding="UTF-8" standalone="no"?>
<!DOCTYPE svg PUBLIC "-//W3C//DTD SVG 1.1//EN" "http://www.w3.org/Graphics/SVG/1.1/DTD/svg11.dtd">
<svg width="100%" height="100%" viewBox="0 0 360 360" version="1.1" xmlns="http://www.w3.org/2000/svg" xmlns:xlink="http://www.w3.org/1999/xlink" xml:space="preserve" xmlns:serif="http://www.serif.com/" style="fill-rule:evenodd;clip-rule:evenodd;stroke-linejoin:round;stroke-miterlimit:2;">
    <g id="Artboard1" transform="matrix(1.0654,0,0,1.18923,-86.3512,-119.501)">
        <rect x="81.05" y="100.486" width="337.9" height="302.717" style="fill:none;"/>
        <g transform="matrix(0.564104,0,0,0.505368,145.306,124.571)">
            <path d="M166.08,95.03L327.017,449.553L349.213,399.844L166.08,0L22.96,314.432L45.1,362.59L166.08,95.03Z" style="fill-rule:nonzero;"/>
        </g>
        <g transform="matrix(-0.938611,0,0,0.840881,802.216,31.8768)">
            <path d="M446.632,254.208L472.79,254.208L516.789,350.782L503.354,380.208L446.632,254.208Z"/>
            <path d="M446.632,254.208L472.79,254.208L516.789,350.782L503.354,380.208L446.632,254.208ZM472.147,255.208L515.69,350.781L503.36,377.786L448.179,255.208L472.147,255.208Z"/>
        </g>
        <g transform="matrix(0.938611,0,0,0.840881,-302.445,-12.0235)">
            <path d="M470.06,306.415L496.576,306.415L517.06,351.415L504.06,380.415L470.06,306.415Z"/>
            <path d="M470.06,306.415L496.576,306.415L517.06,351.415L504.06,380.415L470.06,306.415ZM471.62,307.415L504.048,377.995L515.962,351.418L495.932,307.415L471.62,307.415Z"/>
        </g>
        <g transform="matrix(0.564104,0,0,0.505368,145.306,124.571)">
            <path d="M301.8,503.69L300.72,501.32L177.59,230.1L166.08,204.72L166.07,204.72L31.97,501.32L30.9,503.69L301.8,503.69Z" style="fill:rgb(175,32,36);fill-rule:nonzero;"/>
        </g>
        <g transform="matrix(0.938611,0,0,0.840881,-142.825,32.0514)">
            <path d="M333.887,270.193L307.44,270.193L249.568,254L326.516,254"/>
        </g>
        <g transform="matrix(0.938611,0,0,0.840881,-142.825,32.0514)">
            <path d="M526.683,270.193L534.06,254L587.467,254L552.929,270.193"/>
        </g>
    </g>
</svg>
